<svg width="4000" height="4000" viewBox="0 0 4000 4000" fill="none" xmlns="http://www.w3.org/2000/svg">
<path fill-rule="evenodd" clip-rule="evenodd" d="M4000 0H0V4000H4000V0ZM2075.19 1445.66C2047.35 1449.92 2019.42 1454.19 1992.17 1454.4C1965.1 1454.6 1937.32 1450.82 1909.63 1447.05C1853.85 1439.46 1798.45 1431.92 1750.1 1457.13C1699.95 1483.26 1673.16 1534.95 1646.29 1586.81C1634.16 1610.21 1622.01 1633.65 1607.69 1654.79C1597.81 1669.36 1587.7 1683.68 1577.61 1697.95C1545.75 1743.03 1514.22 1787.64 1491.72 1838.51C1487.35 1848.39 1482.8 1858.32 1478.23 1868.29C1449.86 1930.18 1420.62 1993.96 1428.22 2060.55C1433.85 2109.84 1463.43 2150.18 1493.3 2190.91C1510.26 2214.04 1527.32 2237.31 1540.13 2262.41C1553.45 2288.5 1562.33 2317.44 1571.17 2346.22C1586.98 2397.73 1602.64 2448.72 1643.23 2481.86C1689.86 2519.93 1751.98 2525.5 1813.67 2531.04C1835.43 2532.99 1857.14 2534.94 1878.09 2538.3C1895.56 2541.11 1913.09 2544.59 1930.64 2548.08C1990.89 2560.04 2051.33 2572.05 2110.19 2556.89C2160.84 2543.85 2201.13 2510.25 2241.71 2476.41C2261.56 2459.86 2281.47 2443.25 2302.7 2428.97C2324.74 2414.14 2349.6 2402.19 2374.39 2390.28C2424.63 2366.13 2474.55 2342.14 2499.93 2294.61C2522.42 2252.5 2515.24 2204.38 2507.95 2155.54C2502.91 2121.75 2497.81 2087.62 2502.46 2054.91C2507.2 2021.6 2522.57 1989.3 2537.75 1957.37C2560.57 1909.39 2582.99 1862.27 2568.3 1813.89C2553.58 1765.37 2508.53 1738.71 2462.66 1711.57C2432.76 1693.88 2402.51 1675.98 2380.1 1651.68C2357.51 1627.19 2341.66 1596.3 2325.96 1565.71C2302.72 1520.43 2279.81 1475.78 2235.88 1453.44C2186.95 1428.56 2131.26 1437.08 2075.19 1445.66Z" fill="#FFB0F4"/>
</svg>
