<svg width="4000" height="4000" viewBox="0 0 4000 4000" fill="none" xmlns="http://www.w3.org/2000/svg">
<path fill-rule="evenodd" clip-rule="evenodd" d="M4000 0H0V4000H4000V0ZM1630.87 2265.89C1639.55 2278.37 1648.25 2290.89 1657 2303.5C1669.42 2321.41 1680 2340.86 1690.55 2360.26C1711.62 2399.01 1732.57 2437.54 1767.84 2463.04C1821.56 2501.91 1890.3 2518.78 1956.6 2520.23C2010.57 2521.4 2061.76 2502.48 2112.72 2483.65C2124.05 2479.46 2135.38 2475.28 2146.72 2471.32C2157.07 2467.71 2167.51 2464.23 2177.97 2460.74C2229.95 2443.42 2282.15 2426.02 2324.6 2391.77C2375.75 2350.49 2416.81 2295.62 2440.47 2234.3C2455.04 2196.56 2455.17 2156.17 2455.3 2115.53C2455.37 2092.03 2455.45 2068.45 2458.31 2045.23C2461.09 2022.7 2467.19 2000.36 2473.26 1978.12C2484.04 1938.64 2494.74 1899.46 2486.67 1859.98C2477.14 1813.33 2446.77 1775.35 2416.55 1737.56C2406.74 1725.3 2396.95 1713.05 2387.89 1700.53C2379.03 1688.3 2370.64 1675.47 2362.24 1662.62C2336.12 1622.68 2309.87 1582.54 2269.07 1559.34C2238.28 1541.83 2202.61 1540.58 2166.64 1539.31C2139.76 1538.36 2112.7 1537.41 2087.39 1529.66C2061.86 1521.84 2038.44 1506.14 2015.25 1490.61C1980.95 1467.62 1947.16 1444.98 1907.82 1448.73C1863.21 1452.98 1829.92 1486 1796.6 1519.06C1781.28 1534.25 1765.95 1549.46 1749.5 1561.88C1741.49 1567.93 1733.48 1573.92 1725.48 1579.9C1686.36 1609.14 1647.71 1638.03 1612.24 1672.03C1603.73 1680.18 1595.02 1688.21 1586.3 1696.25C1548.16 1731.44 1509.86 1766.77 1487.3 1813.16C1458.83 1871.71 1437.77 1939.68 1451.1 2003.41C1460.09 2046.36 1489.57 2079.83 1519.22 2113.48C1533.87 2130.11 1548.56 2146.79 1560.83 2164.68C1584.27 2198.84 1607.47 2232.22 1630.87 2265.89Z" fill="#E378E4"/>
</svg>
