<svg width="4000" height="4000" viewBox="0 0 4000 4000" fill="none" xmlns="http://www.w3.org/2000/svg">
<path fill-rule="evenodd" clip-rule="evenodd" d="M4000 0H0V4000H4000V0ZM2094.45 1383.68C2027.31 1369.9 1954.65 1355 1900.5 1355C1849.34 1355 1811.63 1368.3 1774.54 1381.39C1738.65 1394.05 1703.34 1406.5 1657 1406.5C1562.77 1406.5 1507.43 1463.11 1442.19 1534.59C1409.45 1570.47 1394.37 1586.6 1382.69 1604.9C1370.99 1623.23 1362.69 1643.73 1343.46 1688.43C1303.53 1781.24 1270.42 1883.46 1287.69 1983.02C1297.95 2042.19 1334.69 2089.92 1371.8 2138.13C1396.62 2170.37 1421.61 2202.83 1438.94 2239.07C1457.18 2277.19 1466.87 2319.77 1476.48 2362.02C1491.61 2428.49 1506.55 2494.16 1554.29 2540.4C1631.98 2615.67 1749.95 2636.19 1857.75 2644.78C1949.93 2652.12 2039.22 2625.05 2127.95 2598.14C2138.48 2594.95 2148.99 2591.76 2159.51 2588.63C2253.52 2560.64 2345.2 2528.5 2427.54 2475.18C2512.24 2420.32 2597.59 2359.88 2647.86 2272.35C2684.19 2209.08 2692.49 2136.38 2700.82 2063.38C2704.01 2035.43 2707.21 2007.44 2711.98 1979.91C2717.46 1948.33 2726.75 1916.41 2736.03 1884.5C2757.59 1810.37 2779.14 1736.27 2752.97 1666.57C2729.68 1604.53 2679.2 1582.67 2624.46 1558.97C2590.71 1544.35 2555.33 1529.04 2523.71 1503.16C2450.45 1443.21 2314.24 1406.5 2240 1406.5C2205.7 1406.5 2152.11 1395.51 2094.45 1383.68Z" fill="white"/>
</svg>
