<svg id="visual" viewBox="0 0 900 600" width="900" height="600" xmlns="http://www.w3.org/2000/svg" xmlns:xlink="http://www.w3.org/1999/xlink" version="1.1"><rect x="0" y="0" width="900" height="600" fill="#ffffff"></rect><defs><linearGradient id="grad1_0" x1="33.3%" y1="0%" x2="100%" y2="100%"><stop offset="20%" stop-color="#d75dd8" stop-opacity="1"></stop><stop offset="80%" stop-color="#d75dd8" stop-opacity="1"></stop></linearGradient></defs><defs><linearGradient id="grad1_1" x1="33.3%" y1="0%" x2="100%" y2="100%"><stop offset="20%" stop-color="#d75dd8" stop-opacity="1"></stop><stop offset="80%" stop-color="#e489e2" stop-opacity="1"></stop></linearGradient></defs><defs><linearGradient id="grad1_2" x1="33.3%" y1="0%" x2="100%" y2="100%"><stop offset="20%" stop-color="#efb1ec" stop-opacity="1"></stop><stop offset="80%" stop-color="#e489e2" stop-opacity="1"></stop></linearGradient></defs><defs><linearGradient id="grad1_3" x1="33.3%" y1="0%" x2="100%" y2="100%"><stop offset="20%" stop-color="#efb1ec" stop-opacity="1"></stop><stop offset="80%" stop-color="#f8d8f6" stop-opacity="1"></stop></linearGradient></defs><defs><linearGradient id="grad1_4" x1="33.3%" y1="0%" x2="100%" y2="100%"><stop offset="20%" stop-color="#ffffff" stop-opacity="1"></stop><stop offset="80%" stop-color="#f8d8f6" stop-opacity="1"></stop></linearGradient></defs><defs><linearGradient id="grad2_0" x1="0%" y1="0%" x2="66.7%" y2="100%"><stop offset="20%" stop-color="#d75dd8" stop-opacity="1"></stop><stop offset="80%" stop-color="#d75dd8" stop-opacity="1"></stop></linearGradient></defs><defs><linearGradient id="grad2_1" x1="0%" y1="0%" x2="66.7%" y2="100%"><stop offset="20%" stop-color="#e489e2" stop-opacity="1"></stop><stop offset="80%" stop-color="#d75dd8" stop-opacity="1"></stop></linearGradient></defs><defs><linearGradient id="grad2_2" x1="0%" y1="0%" x2="66.7%" y2="100%"><stop offset="20%" stop-color="#e489e2" stop-opacity="1"></stop><stop offset="80%" stop-color="#efb1ec" stop-opacity="1"></stop></linearGradient></defs><defs><linearGradient id="grad2_3" x1="0%" y1="0%" x2="66.7%" y2="100%"><stop offset="20%" stop-color="#f8d8f6" stop-opacity="1"></stop><stop offset="80%" stop-color="#efb1ec" stop-opacity="1"></stop></linearGradient></defs><defs><linearGradient id="grad2_4" x1="0%" y1="0%" x2="66.7%" y2="100%"><stop offset="20%" stop-color="#f8d8f6" stop-opacity="1"></stop><stop offset="80%" stop-color="#ffffff" stop-opacity="1"></stop></linearGradient></defs><g transform="translate(900, 0)"><path d="M0 405.6C-58.9 405.4 -117.7 405.2 -155.2 374.7C-192.7 344.3 -208.9 283.6 -244.7 244.7C-280.4 205.8 -335.8 188.7 -365.9 151.5C-395.9 114.4 -400.8 57.2 -405.6 0L0 0Z" fill="#fcecfa"></path><path d="M0 324.5C-47.1 324.3 -94.2 324.2 -124.2 299.8C-154.2 275.4 -167.1 226.8 -195.7 195.7C-224.3 164.6 -268.6 150.9 -292.7 121.2C-316.8 91.5 -320.6 45.8 -324.5 0L0 0Z" fill="#f4c5f1"></path><path d="M0 243.4C-35.3 243.3 -70.6 243.1 -93.1 224.8C-115.6 206.6 -125.3 170.1 -146.8 146.8C-168.2 123.5 -201.5 113.2 -219.5 90.9C-237.6 68.6 -240.5 34.3 -243.4 0L0 0Z" fill="#ea9de7"></path><path d="M0 162.2C-23.5 162.2 -47.1 162.1 -62.1 149.9C-77.1 137.7 -83.6 113.4 -97.9 97.9C-112.2 82.3 -134.3 75.5 -146.3 60.6C-158.4 45.8 -160.3 22.9 -162.2 0L0 0Z" fill="#de74dd"></path><path d="M0 81.1C-11.8 81.1 -23.5 81 -31 74.9C-38.5 68.9 -41.8 56.7 -48.9 48.9C-56.1 41.2 -67.2 37.7 -73.2 30.3C-79.2 22.9 -80.2 11.4 -81.1 0L0 0Z" fill="#d75dd8"></path></g><g transform="translate(0, 600)"><path d="M0 -405.6C51.6 -387.9 103.1 -370.2 142 -342.8C180.8 -315.3 206.9 -278.2 248.2 -248.2C289.5 -218.2 346 -195.4 374.7 -155.2C403.5 -115.1 404.6 -57.5 405.6 0L0 0Z" fill="#fcecfa"></path><path d="M0 -324.5C41.3 -310.3 82.5 -296.2 113.6 -274.2C144.6 -252.3 165.5 -222.5 198.6 -198.6C231.6 -174.6 276.8 -156.3 299.8 -124.2C322.8 -92 323.7 -46 324.5 0L0 0Z" fill="#f4c5f1"></path><path d="M0 -243.4C30.9 -232.7 61.9 -222.1 85.2 -205.7C108.5 -189.2 124.1 -166.9 148.9 -148.9C173.7 -130.9 207.6 -117.2 224.8 -93.1C242.1 -69 242.7 -34.5 243.4 0L0 0Z" fill="#ea9de7"></path><path d="M0 -162.2C20.6 -155.2 41.3 -148.1 56.8 -137.1C72.3 -126.1 82.8 -111.3 99.3 -99.3C115.8 -87.3 138.4 -78.2 149.9 -62.1C161.4 -46 161.8 -23 162.2 0L0 0Z" fill="#de74dd"></path><path d="M0 -81.1C10.3 -77.6 20.6 -74 28.4 -68.6C36.2 -63.1 41.4 -55.6 49.6 -49.6C57.9 -43.6 69.2 -39.1 74.9 -31C80.7 -23 80.9 -11.5 81.1 0L0 0Z" fill="#d75dd8"></path></g></svg>