<svg id="visual" viewBox="0 0 900 600" width="900" height="600" xmlns="http://www.w3.org/2000/svg" xmlns:xlink="http://www.w3.org/1999/xlink" version="1.1"><path d="M0 294L21.5 295.7C43 297.3 86 300.7 128.8 295.3C171.7 290 214.3 276 257.2 278.2C300 280.3 343 298.7 385.8 297.5C428.7 296.3 471.3 275.7 514.2 274.2C557 272.7 600 290.3 642.8 284.7C685.7 279 728.3 250 771.2 241.3C814 232.7 857 244.3 878.5 250.2L900 256L900 0L878.5 0C857 0 814 0 771.2 0C728.3 0 685.7 0 642.8 0C600 0 557 0 514.2 0C471.3 0 428.7 0 385.8 0C343 0 300 0 257.2 0C214.3 0 171.7 0 128.8 0C86 0 43 0 21.5 0L0 0Z" fill="#9b3097"></path><path d="M0 296L21.5 293.7C43 291.3 86 286.7 128.8 269C171.7 251.3 214.3 220.7 257.2 219.8C300 219 343 248 385.8 250C428.7 252 471.3 227 514.2 218.2C557 209.3 600 216.7 642.8 214.2C685.7 211.7 728.3 199.3 771.2 207.7C814 216 857 245 878.5 259.5L900 274L900 0L878.5 0C857 0 814 0 771.2 0C728.3 0 685.7 0 642.8 0C600 0 557 0 514.2 0C471.3 0 428.7 0 385.8 0C343 0 300 0 257.2 0C214.3 0 171.7 0 128.8 0C86 0 43 0 21.5 0L0 0Z" fill="#b15dac"></path><path d="M0 244L21.5 226.5C43 209 86 174 128.8 163.3C171.7 152.7 214.3 166.3 257.2 170C300 173.7 343 167.3 385.8 165.3C428.7 163.3 471.3 165.7 514.2 167.2C557 168.7 600 169.3 642.8 174.3C685.7 179.3 728.3 188.7 771.2 186C814 183.3 857 168.7 878.5 161.3L900 154L900 0L878.5 0C857 0 814 0 771.2 0C728.3 0 685.7 0 642.8 0C600 0 557 0 514.2 0C471.3 0 428.7 0 385.8 0C343 0 300 0 257.2 0C214.3 0 171.7 0 128.8 0C86 0 43 0 21.5 0L0 0Z" fill="#c686c1"></path><path d="M0 93L21.5 107C43 121 86 149 128.8 165C171.7 181 214.3 185 257.2 176.7C300 168.3 343 147.7 385.8 135.3C428.7 123 471.3 119 514.2 127.2C557 135.3 600 155.7 642.8 165.2C685.7 174.7 728.3 173.3 771.2 174.8C814 176.3 857 180.7 878.5 182.8L900 185L900 0L878.5 0C857 0 814 0 771.2 0C728.3 0 685.7 0 642.8 0C600 0 557 0 514.2 0C471.3 0 428.7 0 385.8 0C343 0 300 0 257.2 0C214.3 0 171.7 0 128.8 0C86 0 43 0 21.5 0L0 0Z" fill="#daaed5"></path><path d="M0 135L21.5 137C43 139 86 143 128.8 138C171.7 133 214.3 119 257.2 111.8C300 104.7 343 104.3 385.8 101C428.7 97.7 471.3 91.3 514.2 87.3C557 83.3 600 81.7 642.8 78.5C685.7 75.3 728.3 70.7 771.2 70C814 69.3 857 72.7 878.5 74.3L900 76L900 0L878.5 0C857 0 814 0 771.2 0C728.3 0 685.7 0 642.8 0C600 0 557 0 514.2 0C471.3 0 428.7 0 385.8 0C343 0 300 0 257.2 0C214.3 0 171.7 0 128.8 0C86 0 43 0 21.5 0L0 0Z" fill="#edd6ea"></path><path d="M0 85L21.5 80.5C43 76 86 67 128.8 58.7C171.7 50.3 214.3 42.7 257.2 33.7C300 24.7 343 14.3 385.8 12.8C428.7 11.3 471.3 18.7 514.2 21.5C557 24.3 600 22.7 642.8 28.8C685.7 35 728.3 49 771.2 49.7C814 50.3 857 37.7 878.5 31.3L900 25L900 0L878.5 0C857 0 814 0 771.2 0C728.3 0 685.7 0 642.8 0C600 0 557 0 514.2 0C471.3 0 428.7 0 385.8 0C343 0 300 0 257.2 0C214.3 0 171.7 0 128.8 0C86 0 43 0 21.5 0L0 0Z" fill="#ffffff"></path></svg>