<svg id="visual" viewBox="0 0 900 600" width="900" height="600" xmlns="http://www.w3.org/2000/svg" xmlns:xlink="http://www.w3.org/1999/xlink" version="1.1"><path d="M0 162L25 165.5C50 169 100 176 150 182.3C200 188.7 250 194.3 300 191.5C350 188.7 400 177.3 450 177.3C500 177.3 550 188.7 600 184.3C650 180 700 160 750 160.7C800 161.3 850 182.7 875 193.3L900 204L900 0L875 0C850 0 800 0 750 0C700 0 650 0 600 0C550 0 500 0 450 0C400 0 350 0 300 0C250 0 200 0 150 0C100 0 50 0 25 0L0 0Z" fill="#e378e4"></path><path d="M0 109L25 111.3C50 113.7 100 118.3 150 119.7C200 121 250 119 300 120.8C350 122.7 400 128.3 450 128.2C500 128 550 122 600 125.7C650 129.3 700 142.7 750 151.7C800 160.7 850 165.3 875 167.7L900 170L900 0L875 0C850 0 800 0 750 0C700 0 650 0 600 0C550 0 500 0 450 0C400 0 350 0 300 0C250 0 200 0 150 0C100 0 50 0 25 0L0 0Z" fill="#ec9beb"></path><path d="M0 139L25 132.5C50 126 100 113 150 106.2C200 99.3 250 98.7 300 98.3C350 98 400 98 450 91.8C500 85.7 550 73.3 600 81.5C650 89.7 700 118.3 750 119.8C800 121.3 850 95.7 875 82.8L900 70L900 0L875 0C850 0 800 0 750 0C700 0 650 0 600 0C550 0 500 0 450 0C400 0 350 0 300 0C250 0 200 0 150 0C100 0 50 0 25 0L0 0Z" fill="#f4bdf2"></path><path d="M0 46L25 54.3C50 62.7 100 79.3 150 81.7C200 84 250 72 300 67.8C350 63.7 400 67.3 450 73.3C500 79.3 550 87.7 600 85C650 82.3 700 68.7 750 61.2C800 53.7 850 52.3 875 51.7L900 51L900 0L875 0C850 0 800 0 750 0C700 0 650 0 600 0C550 0 500 0 450 0C400 0 350 0 300 0C250 0 200 0 150 0C100 0 50 0 25 0L0 0Z" fill="#fadef9"></path><path d="M0 32L25 31.2C50 30.3 100 28.7 150 31.2C200 33.7 250 40.3 300 46C350 51.7 400 56.3 450 57.5C500 58.7 550 56.3 600 57.7C650 59 700 64 750 64.3C800 64.7 850 60.3 875 58.2L900 56L900 0L875 0C850 0 800 0 750 0C700 0 650 0 600 0C550 0 500 0 450 0C400 0 350 0 300 0C250 0 200 0 150 0C100 0 50 0 25 0L0 0Z" fill="#ffffff"></path></svg>