<svg id="visual" viewBox="0 0 960 540" width="960" height="540" xmlns="http://www.w3.org/2000/svg" xmlns:xlink="http://www.w3.org/1999/xlink" version="1.1"><path d="M0 370L26.7 360.8C53.3 351.7 106.7 333.3 160 342.3C213.3 351.3 266.7 387.7 320 407.7C373.3 427.7 426.7 431.3 480 414.7C533.3 398 586.7 361 640 350.8C693.3 340.7 746.7 357.3 800 378C853.3 398.7 906.7 423.3 933.3 435.7L960 448L960 0L933.3 0C906.7 0 853.3 0 800 0C746.7 0 693.3 0 640 0C586.7 0 533.3 0 480 0C426.7 0 373.3 0 320 0C266.7 0 213.3 0 160 0C106.7 0 53.3 0 26.7 0L0 0Z" fill="#e378e4"></path><path d="M0 227L26.7 243.5C53.3 260 106.7 293 160 316.7C213.3 340.3 266.7 354.7 320 344.3C373.3 334 426.7 299 480 281.2C533.3 263.3 586.7 262.7 640 265.8C693.3 269 746.7 276 800 282.3C853.3 288.7 906.7 294.3 933.3 297.2L960 300L960 0L933.3 0C906.7 0 853.3 0 800 0C746.7 0 693.3 0 640 0C586.7 0 533.3 0 480 0C426.7 0 373.3 0 320 0C266.7 0 213.3 0 160 0C106.7 0 53.3 0 26.7 0L0 0Z" fill="#e997ec"></path><path d="M0 195L26.7 199.5C53.3 204 106.7 213 160 212.5C213.3 212 266.7 202 320 209.8C373.3 217.7 426.7 243.3 480 246.7C533.3 250 586.7 231 640 229.3C693.3 227.7 746.7 243.3 800 234.3C853.3 225.3 906.7 191.7 933.3 174.8L960 158L960 0L933.3 0C906.7 0 853.3 0 800 0C746.7 0 693.3 0 640 0C586.7 0 533.3 0 480 0C426.7 0 373.3 0 320 0C266.7 0 213.3 0 160 0C106.7 0 53.3 0 26.7 0L0 0Z" fill="#eeb4f2"></path><path d="M0 158L26.7 150.8C53.3 143.7 106.7 129.3 160 135.3C213.3 141.3 266.7 167.7 320 172.2C373.3 176.7 426.7 159.3 480 156.2C533.3 153 586.7 164 640 169.3C693.3 174.7 746.7 174.3 800 167C853.3 159.7 906.7 145.3 933.3 138.2L960 131L960 0L933.3 0C906.7 0 853.3 0 800 0C746.7 0 693.3 0 640 0C586.7 0 533.3 0 480 0C426.7 0 373.3 0 320 0C266.7 0 213.3 0 160 0C106.7 0 53.3 0 26.7 0L0 0Z" fill="#f4d0f8"></path><path d="M0 100L26.7 100.2C53.3 100.3 106.7 100.7 160 102.2C213.3 103.7 266.7 106.3 320 103.3C373.3 100.3 426.7 91.7 480 82C533.3 72.3 586.7 61.7 640 62.8C693.3 64 746.7 77 800 82.5C853.3 88 906.7 86 933.3 85L960 84L960 0L933.3 0C906.7 0 853.3 0 800 0C746.7 0 693.3 0 640 0C586.7 0 533.3 0 480 0C426.7 0 373.3 0 320 0C266.7 0 213.3 0 160 0C106.7 0 53.3 0 26.7 0L0 0Z" fill="#faebfc"></path></svg>