<svg id="visual" viewBox="0 0 900 5000" width="900" height="5000" xmlns="http://www.w3.org/2000/svg" xmlns:xlink="http://www.w3.org/1999/xlink" version="1.1"><path d="M818 5000L828.5 4958.3C839 4916.7 860 4833.3 863 4750C866 4666.7 851 4583.3 837.5 4500C824 4416.7 812 4333.3 813.5 4250C815 4166.7 830 4083.3 840.5 4000C851 3916.7 857 3833.3 854 3750C851 3666.7 839 3583.3 831.5 3500C824 3416.7 821 3333.3 827 3250C833 3166.7 848 3083.3 848 3000C848 2916.7 833 2833.3 830 2750C827 2666.7 836 2583.3 836 2500C836 2416.7 827 2333.3 825.5 2250C824 2166.7 830 2083.3 830 2000C830 1916.7 824 1833.3 828.5 1750C833 1666.7 848 1583.3 858.5 1500C869 1416.7 875 1333.3 878 1250C881 1166.7 881 1083.3 872 1000C863 916.7 845 833.3 837.5 750C830 666.7 833 583.3 839 500C845 416.7 854 333.3 855.5 250C857 166.7 851 83.3 848 41.7L845 0L900 0L900 41.7C900 83.3 900 166.7 900 250C900 333.3 900 416.7 900 500C900 583.3 900 666.7 900 750C900 833.3 900 916.7 900 1000C900 1083.3 900 1166.7 900 1250C900 1333.3 900 1416.7 900 1500C900 1583.3 900 1666.7 900 1750C900 1833.3 900 1916.7 900 2000C900 2083.3 900 2166.7 900 2250C900 2333.3 900 2416.7 900 2500C900 2583.3 900 2666.7 900 2750C900 2833.3 900 2916.7 900 3000C900 3083.3 900 3166.7 900 3250C900 3333.3 900 3416.7 900 3500C900 3583.3 900 3666.7 900 3750C900 3833.3 900 3916.7 900 4000C900 4083.3 900 4166.7 900 4250C900 4333.3 900 4416.7 900 4500C900 4583.3 900 4666.7 900 4750C900 4833.3 900 4916.7 900 4958.3L900 5000Z" fill="#d75dd8"></path><path d="M710 5000L714.5 4958.3C719 4916.7 728 4833.3 734 4750C740 4666.7 743 4583.3 731 4500C719 4416.7 692 4333.3 699.5 4250C707 4166.7 749 4083.3 774.5 4000C800 3916.7 809 3833.3 809 3750C809 3666.7 800 3583.3 786.5 3500C773 3416.7 755 3333.3 740 3250C725 3166.7 713 3083.3 719 3000C725 2916.7 749 2833.3 753.5 2750C758 2666.7 743 2583.3 741.5 2500C740 2416.7 752 2333.3 747.5 2250C743 2166.7 722 2083.3 717.5 2000C713 1916.7 725 1833.3 740 1750C755 1666.7 773 1583.3 779 1500C785 1416.7 779 1333.3 779 1250C779 1166.7 785 1083.3 770 1000C755 916.7 719 833.3 704 750C689 666.7 695 583.3 707 500C719 416.7 737 333.3 749 250C761 166.7 767 83.3 770 41.7L773 0L846 0L849 41.7C852 83.3 858 166.7 856.5 250C855 333.3 846 416.7 840 500C834 583.3 831 666.7 838.5 750C846 833.3 864 916.7 873 1000C882 1083.3 882 1166.7 879 1250C876 1333.3 870 1416.7 859.5 1500C849 1583.3 834 1666.7 829.5 1750C825 1833.3 831 1916.7 831 2000C831 2083.3 825 2166.7 826.5 2250C828 2333.3 837 2416.7 837 2500C837 2583.3 828 2666.7 831 2750C834 2833.3 849 2916.7 849 3000C849 3083.3 834 3166.7 828 3250C822 3333.3 825 3416.7 832.5 3500C840 3583.3 852 3666.7 855 3750C858 3833.3 852 3916.7 841.5 4000C831 4083.3 816 4166.7 814.5 4250C813 4333.3 825 4416.7 838.5 4500C852 4583.3 867 4666.7 864 4750C861 4833.3 840 4916.7 829.5 4958.3L819 5000Z" fill="#df81e2"></path><path d="M638 5000L644 4958.3C650 4916.7 662 4833.3 674 4750C686 4666.7 698 4583.3 693.5 4500C689 4416.7 668 4333.3 677 4250C686 4166.7 725 4083.3 750.5 4000C776 3916.7 788 3833.3 780.5 3750C773 3666.7 746 3583.3 729.5 3500C713 3416.7 707 3333.3 699.5 3250C692 3166.7 683 3083.3 692 3000C701 2916.7 728 2833.3 729.5 2750C731 2666.7 707 2583.3 702.5 2500C698 2416.7 713 2333.3 713 2250C713 2166.7 698 2083.3 687.5 2000C677 1916.7 671 1833.3 678.5 1750C686 1666.7 707 1583.3 716 1500C725 1416.7 722 1333.3 722 1250C722 1166.7 725 1083.3 707 1000C689 916.7 650 833.3 636.5 750C623 666.7 635 583.3 648.5 500C662 416.7 677 333.3 695 250C713 166.7 734 83.3 744.5 41.7L755 0L774 0L771 41.7C768 83.3 762 166.7 750 250C738 333.3 720 416.7 708 500C696 583.3 690 666.7 705 750C720 833.3 756 916.7 771 1000C786 1083.3 780 1166.7 780 1250C780 1333.3 786 1416.7 780 1500C774 1583.3 756 1666.7 741 1750C726 1833.3 714 1916.7 718.5 2000C723 2083.3 744 2166.7 748.5 2250C753 2333.3 741 2416.7 742.5 2500C744 2583.3 759 2666.7 754.5 2750C750 2833.3 726 2916.7 720 3000C714 3083.3 726 3166.7 741 3250C756 3333.3 774 3416.7 787.5 3500C801 3583.3 810 3666.7 810 3750C810 3833.3 801 3916.7 775.5 4000C750 4083.3 708 4166.7 700.5 4250C693 4333.3 720 4416.7 732 4500C744 4583.3 741 4666.7 735 4750C729 4833.3 720 4916.7 715.5 4958.3L711 5000Z" fill="#e7a2eb"></path><path d="M413 5000L429.5 4958.3C446 4916.7 479 4833.3 512 4750C545 4666.7 578 4583.3 576.5 4500C575 4416.7 539 4333.3 521 4250C503 4166.7 503 4083.3 522.5 4000C542 3916.7 581 3833.3 599 3750C617 3666.7 614 3583.3 581 3500C548 3416.7 485 3333.3 473 3250C461 3166.7 500 3083.3 516.5 3000C533 2916.7 527 2833.3 516.5 2750C506 2666.7 491 2583.3 506 2500C521 2416.7 566 2333.3 561.5 2250C557 2166.7 503 2083.3 497 2000C491 1916.7 533 1833.3 566 1750C599 1666.7 623 1583.3 612.5 1500C602 1416.7 557 1333.3 533 1250C509 1166.7 506 1083.3 497 1000C488 916.7 473 833.3 470 750C467 666.7 476 583.3 471.5 500C467 416.7 449 333.3 447.5 250C446 166.7 461 83.3 468.5 41.7L476 0L756 0L745.5 41.7C735 83.3 714 166.7 696 250C678 333.3 663 416.7 649.5 500C636 583.3 624 666.7 637.5 750C651 833.3 690 916.7 708 1000C726 1083.3 723 1166.7 723 1250C723 1333.3 726 1416.7 717 1500C708 1583.3 687 1666.7 679.5 1750C672 1833.3 678 1916.7 688.5 2000C699 2083.3 714 2166.7 714 2250C714 2333.3 699 2416.7 703.5 2500C708 2583.3 732 2666.7 730.5 2750C729 2833.3 702 2916.7 693 3000C684 3083.3 693 3166.7 700.5 3250C708 3333.3 714 3416.7 730.5 3500C747 3583.3 774 3666.7 781.5 3750C789 3833.3 777 3916.7 751.5 4000C726 4083.3 687 4166.7 678 4250C669 4333.3 690 4416.7 694.5 4500C699 4583.3 687 4666.7 675 4750C663 4833.3 651 4916.7 645 4958.3L639 5000Z" fill="#efc1f3"></path><path d="M368 5000L381.5 4958.3C395 4916.7 422 4833.3 444.5 4750C467 4666.7 485 4583.3 477.5 4500C470 4416.7 437 4333.3 416 4250C395 4166.7 386 4083.3 401 4000C416 3916.7 455 3833.3 480.5 3750C506 3666.7 518 3583.3 501.5 3500C485 3416.7 440 3333.3 431 3250C422 3166.7 449 3083.3 456.5 3000C464 2916.7 452 2833.3 447.5 2750C443 2666.7 446 2583.3 461 2500C476 2416.7 503 2333.3 489.5 2250C476 2166.7 422 2083.3 414.5 2000C407 1916.7 446 1833.3 474.5 1750C503 1666.7 521 1583.3 512 1500C503 1416.7 467 1333.3 452 1250C437 1166.7 443 1083.3 441.5 1000C440 916.7 431 833.3 419 750C407 666.7 392 583.3 386 500C380 416.7 383 333.3 381.5 250C380 166.7 374 83.3 371 41.7L368 0L477 0L469.5 41.7C462 83.3 447 166.7 448.5 250C450 333.3 468 416.7 472.5 500C477 583.3 468 666.7 471 750C474 833.3 489 916.7 498 1000C507 1083.3 510 1166.7 534 1250C558 1333.3 603 1416.7 613.5 1500C624 1583.3 600 1666.7 567 1750C534 1833.3 492 1916.7 498 2000C504 2083.3 558 2166.7 562.5 2250C567 2333.3 522 2416.7 507 2500C492 2583.3 507 2666.7 517.5 2750C528 2833.3 534 2916.7 517.5 3000C501 3083.3 462 3166.7 474 3250C486 3333.3 549 3416.7 582 3500C615 3583.3 618 3666.7 600 3750C582 3833.3 543 3916.7 523.5 4000C504 4083.3 504 4166.7 522 4250C540 4333.3 576 4416.7 577.5 4500C579 4583.3 546 4666.7 513 4750C480 4833.3 447 4916.7 430.5 4958.3L414 5000Z" fill="#f7dffa"></path><path d="M350 5000L363.5 4958.3C377 4916.7 404 4833.3 423.5 4750C443 4666.7 455 4583.3 444.5 4500C434 4416.7 401 4333.3 381.5 4250C362 4166.7 356 4083.3 371 4000C386 3916.7 422 3833.3 443 3750C464 3666.7 470 3583.3 452 3500C434 3416.7 392 3333.3 384.5 3250C377 3166.7 404 3083.3 414.5 3000C425 2916.7 419 2833.3 417.5 2750C416 2666.7 419 2583.3 432.5 2500C446 2416.7 470 2333.3 450.5 2250C431 2166.7 368 2083.3 356 2000C344 1916.7 383 1833.3 419 1750C455 1666.7 488 1583.3 485 1500C482 1416.7 443 1333.3 426.5 1250C410 1166.7 416 1083.3 411.5 1000C407 916.7 392 833.3 380 750C368 666.7 359 583.3 357.5 500C356 416.7 362 333.3 354.5 250C347 166.7 326 83.3 315.5 41.7L305 0L369 0L372 41.7C375 83.3 381 166.7 382.5 250C384 333.3 381 416.7 387 500C393 583.3 408 666.7 420 750C432 833.3 441 916.7 442.5 1000C444 1083.3 438 1166.7 453 1250C468 1333.3 504 1416.7 513 1500C522 1583.3 504 1666.7 475.5 1750C447 1833.3 408 1916.7 415.5 2000C423 2083.3 477 2166.7 490.5 2250C504 2333.3 477 2416.7 462 2500C447 2583.3 444 2666.7 448.5 2750C453 2833.3 465 2916.7 457.5 3000C450 3083.3 423 3166.7 432 3250C441 3333.3 486 3416.7 502.5 3500C519 3583.3 507 3666.7 481.5 3750C456 3833.3 417 3916.7 402 4000C387 4083.3 396 4166.7 417 4250C438 4333.3 471 4416.7 478.5 4500C486 4583.3 468 4666.7 445.5 4750C423 4833.3 396 4916.7 382.5 4958.3L369 5000Z" fill="#faebfc"></path><path d="M251 5000L246.5 4958.3C242 4916.7 233 4833.3 239 4750C245 4666.7 266 4583.3 267.5 4500C269 4416.7 251 4333.3 242 4250C233 4166.7 233 4083.3 227 4000C221 3916.7 209 3833.3 209 3750C209 3666.7 221 3583.3 228.5 3500C236 3416.7 239 3333.3 243.5 3250C248 3166.7 254 3083.3 255.5 3000C257 2916.7 254 2833.3 254 2750C254 2666.7 257 2583.3 243.5 2500C230 2416.7 200 2333.3 198.5 2250C197 2166.7 224 2083.3 219.5 2000C215 1916.7 179 1833.3 179 1750C179 1666.7 215 1583.3 236 1500C257 1416.7 263 1333.3 260 1250C257 1166.7 245 1083.3 236 1000C227 916.7 221 833.3 218 750C215 666.7 215 583.3 216.5 500C218 416.7 221 333.3 213.5 250C206 166.7 188 83.3 179 41.7L170 0L306 0L316.5 41.7C327 83.3 348 166.7 355.5 250C363 333.3 357 416.7 358.5 500C360 583.3 369 666.7 381 750C393 833.3 408 916.7 412.5 1000C417 1083.3 411 1166.7 427.5 1250C444 1333.3 483 1416.7 486 1500C489 1583.3 456 1666.7 420 1750C384 1833.3 345 1916.7 357 2000C369 2083.3 432 2166.7 451.5 2250C471 2333.3 447 2416.7 433.5 2500C420 2583.3 417 2666.7 418.5 2750C420 2833.3 426 2916.7 415.5 3000C405 3083.3 378 3166.7 385.5 3250C393 3333.3 435 3416.7 453 3500C471 3583.3 465 3666.7 444 3750C423 3833.3 387 3916.7 372 4000C357 4083.3 363 4166.7 382.5 4250C402 4333.3 435 4416.7 445.5 4500C456 4583.3 444 4666.7 424.5 4750C405 4833.3 378 4916.7 364.5 4958.3L351 5000Z" fill="#faebfc"></path><path d="M188 5000L188 4958.3C188 4916.7 188 4833.3 194 4750C200 4666.7 212 4583.3 216.5 4500C221 4416.7 218 4333.3 216.5 4250C215 4166.7 215 4083.3 209 4000C203 3916.7 191 3833.3 185 3750C179 3666.7 179 3583.3 186.5 3500C194 3416.7 209 3333.3 209 3250C209 3166.7 194 3083.3 192.5 3000C191 2916.7 203 2833.3 203 2750C203 2666.7 191 2583.3 180.5 2500C170 2416.7 161 2333.3 161 2250C161 2166.7 170 2083.3 165.5 2000C161 1916.7 143 1833.3 144.5 1750C146 1666.7 167 1583.3 177.5 1500C188 1416.7 188 1333.3 191 1250C194 1166.7 200 1083.3 198.5 1000C197 916.7 188 833.3 182 750C176 666.7 173 583.3 171.5 500C170 416.7 170 333.3 165.5 250C161 166.7 152 83.3 147.5 41.7L143 0L171 0L180 41.7C189 83.3 207 166.7 214.5 250C222 333.3 219 416.7 217.5 500C216 583.3 216 666.7 219 750C222 833.3 228 916.7 237 1000C246 1083.3 258 1166.7 261 1250C264 1333.3 258 1416.7 237 1500C216 1583.3 180 1666.7 180 1750C180 1833.3 216 1916.7 220.5 2000C225 2083.3 198 2166.7 199.5 2250C201 2333.3 231 2416.7 244.5 2500C258 2583.3 255 2666.7 255 2750C255 2833.3 258 2916.7 256.5 3000C255 3083.3 249 3166.7 244.5 3250C240 3333.3 237 3416.7 229.5 3500C222 3583.3 210 3666.7 210 3750C210 3833.3 222 3916.7 228 4000C234 4083.3 234 4166.7 243 4250C252 4333.3 270 4416.7 268.5 4500C267 4583.3 246 4666.7 240 4750C234 4833.3 243 4916.7 247.5 4958.3L252 5000Z" fill="#f7dffa"></path><path d="M170 5000L164 4958.3C158 4916.7 146 4833.3 152 4750C158 4666.7 182 4583.3 191 4500C200 4416.7 194 4333.3 191 4250C188 4166.7 188 4083.3 177.5 4000C167 3916.7 146 3833.3 140 3750C134 3666.7 143 3583.3 150.5 3500C158 3416.7 164 3333.3 161 3250C158 3166.7 146 3083.3 150.5 3000C155 2916.7 176 2833.3 174.5 2750C173 2666.7 149 2583.3 138.5 2500C128 2416.7 131 2333.3 137 2250C143 2166.7 152 2083.3 147.5 2000C143 1916.7 125 1833.3 125 1750C125 1666.7 143 1583.3 147.5 1500C152 1416.7 143 1333.3 141.5 1250C140 1166.7 146 1083.3 146 1000C146 916.7 140 833.3 137 750C134 666.7 134 583.3 135.5 500C137 416.7 140 333.3 135.5 250C131 166.7 119 83.3 113 41.7L107 0L144 0L148.5 41.7C153 83.3 162 166.7 166.5 250C171 333.3 171 416.7 172.5 500C174 583.3 177 666.7 183 750C189 833.3 198 916.7 199.5 1000C201 1083.3 195 1166.7 192 1250C189 1333.3 189 1416.7 178.5 1500C168 1583.3 147 1666.7 145.5 1750C144 1833.3 162 1916.7 166.5 2000C171 2083.3 162 2166.7 162 2250C162 2333.3 171 2416.7 181.5 2500C192 2583.3 204 2666.7 204 2750C204 2833.3 192 2916.7 193.5 3000C195 3083.3 210 3166.7 210 3250C210 3333.3 195 3416.7 187.5 3500C180 3583.3 180 3666.7 186 3750C192 3833.3 204 3916.7 210 4000C216 4083.3 216 4166.7 217.5 4250C219 4333.3 222 4416.7 217.5 4500C213 4583.3 201 4666.7 195 4750C189 4833.3 189 4916.7 189 4958.3L189 5000Z" fill="#efc1f3"></path><path d="M107 5000L104 4958.3C101 4916.7 95 4833.3 101 4750C107 4666.7 125 4583.3 132.5 4500C140 4416.7 137 4333.3 137 4250C137 4166.7 140 4083.3 129.5 4000C119 3916.7 95 3833.3 89 3750C83 3666.7 95 3583.3 101 3500C107 3416.7 107 3333.3 101 3250C95 3166.7 83 3083.3 90.5 3000C98 2916.7 125 2833.3 128 2750C131 2666.7 110 2583.3 99.5 2500C89 2416.7 89 2333.3 92 2250C95 2166.7 101 2083.3 95 2000C89 1916.7 71 1833.3 77 1750C83 1666.7 113 1583.3 120.5 1500C128 1416.7 113 1333.3 108.5 1250C104 1166.7 110 1083.3 114.5 1000C119 916.7 122 833.3 120.5 750C119 666.7 113 583.3 111.5 500C110 416.7 113 333.3 110 250C107 166.7 98 83.3 93.5 41.7L89 0L108 0L114 41.7C120 83.3 132 166.7 136.5 250C141 333.3 138 416.7 136.5 500C135 583.3 135 666.7 138 750C141 833.3 147 916.7 147 1000C147 1083.3 141 1166.7 142.5 1250C144 1333.3 153 1416.7 148.5 1500C144 1583.3 126 1666.7 126 1750C126 1833.3 144 1916.7 148.5 2000C153 2083.3 144 2166.7 138 2250C132 2333.3 129 2416.7 139.5 2500C150 2583.3 174 2666.7 175.5 2750C177 2833.3 156 2916.7 151.5 3000C147 3083.3 159 3166.7 162 3250C165 3333.3 159 3416.7 151.5 3500C144 3583.3 135 3666.7 141 3750C147 3833.3 168 3916.7 178.5 4000C189 4083.3 189 4166.7 192 4250C195 4333.3 201 4416.7 192 4500C183 4583.3 159 4666.7 153 4750C147 4833.3 159 4916.7 165 4958.3L171 5000Z" fill="#e7a2eb"></path><path d="M35 5000L32 4958.3C29 4916.7 23 4833.3 23 4750C23 4666.7 29 4583.3 30.5 4500C32 4416.7 29 4333.3 29 4250C29 4166.7 32 4083.3 30.5 4000C29 3916.7 23 3833.3 23 3750C23 3666.7 29 3583.3 29 3500C29 3416.7 23 3333.3 24.5 3250C26 3166.7 35 3083.3 38 3000C41 2916.7 38 2833.3 39.5 2750C41 2666.7 47 2583.3 45.5 2500C44 2416.7 35 2333.3 32 2250C29 2166.7 32 2083.3 30.5 2000C29 1916.7 23 1833.3 26 1750C29 1666.7 41 1583.3 47 1500C53 1416.7 53 1333.3 50 1250C47 1166.7 41 1083.3 41 1000C41 916.7 47 833.3 45.5 750C44 666.7 35 583.3 32 500C29 416.7 32 333.3 32 250C32 166.7 29 83.3 27.5 41.7L26 0L90 0L94.5 41.7C99 83.3 108 166.7 111 250C114 333.3 111 416.7 112.5 500C114 583.3 120 666.7 121.5 750C123 833.3 120 916.7 115.5 1000C111 1083.3 105 1166.7 109.5 1250C114 1333.3 129 1416.7 121.5 1500C114 1583.3 84 1666.7 78 1750C72 1833.3 90 1916.7 96 2000C102 2083.3 96 2166.7 93 2250C90 2333.3 90 2416.7 100.5 2500C111 2583.3 132 2666.7 129 2750C126 2833.3 99 2916.7 91.5 3000C84 3083.3 96 3166.7 102 3250C108 3333.3 108 3416.7 102 3500C96 3583.3 84 3666.7 90 3750C96 3833.3 120 3916.7 130.5 4000C141 4083.3 138 4166.7 138 4250C138 4333.3 141 4416.7 133.5 4500C126 4583.3 108 4666.7 102 4750C96 4833.3 102 4916.7 105 4958.3L108 5000Z" fill="#df81e2"></path><path d="M0 5000L0 4958.3C0 4916.7 0 4833.3 0 4750C0 4666.7 0 4583.3 0 4500C0 4416.7 0 4333.3 0 4250C0 4166.7 0 4083.3 0 4000C0 3916.7 0 3833.3 0 3750C0 3666.7 0 3583.3 0 3500C0 3416.7 0 3333.3 0 3250C0 3166.7 0 3083.3 0 3000C0 2916.7 0 2833.3 0 2750C0 2666.7 0 2583.3 0 2500C0 2416.7 0 2333.3 0 2250C0 2166.7 0 2083.3 0 2000C0 1916.7 0 1833.3 0 1750C0 1666.7 0 1583.3 0 1500C0 1416.7 0 1333.3 0 1250C0 1166.7 0 1083.3 0 1000C0 916.7 0 833.3 0 750C0 666.7 0 583.3 0 500C0 416.7 0 333.3 0 250C0 166.7 0 83.3 0 41.7L0 0L27 0L28.5 41.7C30 83.3 33 166.7 33 250C33 333.3 30 416.7 33 500C36 583.3 45 666.7 46.5 750C48 833.3 42 916.7 42 1000C42 1083.3 48 1166.7 51 1250C54 1333.3 54 1416.7 48 1500C42 1583.3 30 1666.7 27 1750C24 1833.3 30 1916.7 31.5 2000C33 2083.3 30 2166.7 33 2250C36 2333.3 45 2416.7 46.5 2500C48 2583.3 42 2666.7 40.5 2750C39 2833.3 42 2916.7 39 3000C36 3083.3 27 3166.7 25.5 3250C24 3333.3 30 3416.7 30 3500C30 3583.3 24 3666.7 24 3750C24 3833.3 30 3916.7 31.5 4000C33 4083.3 30 4166.7 30 4250C30 4333.3 33 4416.7 31.5 4500C30 4583.3 24 4666.7 24 4750C24 4833.3 30 4916.7 33 4958.3L36 5000Z" fill="#d75dd8"></path></svg>