<svg id="visual" viewBox="0 0 960 540" width="960" height="540" xmlns="http://www.w3.org/2000/svg" xmlns:xlink="http://www.w3.org/1999/xlink" version="1.1"><path d="M0 168L26.7 177.2C53.3 186.3 106.7 204.7 160 195.7C213.3 186.7 266.7 150.3 320 130.3C373.3 110.3 426.7 106.7 480 123.3C533.3 140 586.7 177 640 187.2C693.3 197.3 746.7 180.7 800 160C853.3 139.3 906.7 114.7 933.3 102.3L960 90L960 541L933.3 541C906.7 541 853.3 541 800 541C746.7 541 693.3 541 640 541C586.7 541 533.3 541 480 541C426.7 541 373.3 541 320 541C266.7 541 213.3 541 160 541C106.7 541 53.3 541 26.7 541L0 541Z" fill="#e378e4"></path><path d="M0 311L26.7 294.5C53.3 278 106.7 245 160 221.3C213.3 197.7 266.7 183.3 320 193.7C373.3 204 426.7 239 480 256.8C533.3 274.7 586.7 275.3 640 272.2C693.3 269 746.7 262 800 255.7C853.3 249.3 906.7 243.7 933.3 240.8L960 238L960 541L933.3 541C906.7 541 853.3 541 800 541C746.7 541 693.3 541 640 541C586.7 541 533.3 541 480 541C426.7 541 373.3 541 320 541C266.7 541 213.3 541 160 541C106.7 541 53.3 541 26.7 541L0 541Z" fill="#e997ec"></path><path d="M0 343L26.7 338.5C53.3 334 106.7 325 160 325.5C213.3 326 266.7 336 320 328.2C373.3 320.3 426.7 294.7 480 291.3C533.3 288 586.7 307 640 308.7C693.3 310.3 746.7 294.7 800 303.7C853.3 312.7 906.7 346.3 933.3 363.2L960 380L960 541L933.3 541C906.7 541 853.3 541 800 541C746.7 541 693.3 541 640 541C586.7 541 533.3 541 480 541C426.7 541 373.3 541 320 541C266.7 541 213.3 541 160 541C106.7 541 53.3 541 26.7 541L0 541Z" fill="#eeb4f2"></path><path d="M0 380L26.7 387.2C53.3 394.3 106.7 408.7 160 402.7C213.3 396.7 266.7 370.3 320 365.8C373.3 361.3 426.7 378.7 480 381.8C533.3 385 586.7 374 640 368.7C693.3 363.3 746.7 363.7 800 371C853.3 378.3 906.7 392.7 933.3 399.8L960 407L960 541L933.3 541C906.7 541 853.3 541 800 541C746.7 541 693.3 541 640 541C586.7 541 533.3 541 480 541C426.7 541 373.3 541 320 541C266.7 541 213.3 541 160 541C106.7 541 53.3 541 26.7 541L0 541Z" fill="#f4d0f8"></path><path d="M0 438L26.7 437.8C53.3 437.7 106.7 437.3 160 435.8C213.3 434.3 266.7 431.7 320 434.7C373.3 437.7 426.7 446.3 480 456C533.3 465.7 586.7 476.3 640 475.2C693.3 474 746.7 461 800 455.5C853.3 450 906.7 452 933.3 453L960 454L960 541L933.3 541C906.7 541 853.3 541 800 541C746.7 541 693.3 541 640 541C586.7 541 533.3 541 480 541C426.7 541 373.3 541 320 541C266.7 541 213.3 541 160 541C106.7 541 53.3 541 26.7 541L0 541Z" fill="#faebfc"></path></svg>