<svg id="visual" viewBox="0 0 900 3000" width="900" height="3000" xmlns="http://www.w3.org/2000/svg" xmlns:xlink="http://www.w3.org/1999/xlink" version="1.1"><path d="M881 3000L876.5 2950C872 2900 863 2800 863 2700C863 2600 872 2500 872 2400C872 2300 863 2200 861.5 2100C860 2000 866 1900 867.5 1800C869 1700 866 1600 866 1500C866 1400 869 1300 872 1200C875 1100 878 1000 878 900C878 800 875 700 875 600C875 500 878 400 876.5 300C875 200 869 100 866 50L863 0L900 0L900 50C900 100 900 200 900 300C900 400 900 500 900 600C900 700 900 800 900 900C900 1000 900 1100 900 1200C900 1300 900 1400 900 1500C900 1600 900 1700 900 1800C900 1900 900 2000 900 2100C900 2200 900 2300 900 2400C900 2500 900 2600 900 2700C900 2800 900 2900 900 2950L900 3000Z" fill="#d75dd8"></path><path d="M845 3000L836 2950C827 2900 809 2800 801.5 2700C794 2600 797 2500 797 2400C797 2300 794 2200 800 2100C806 2000 821 1900 827 1800C833 1700 830 1600 824 1500C818 1400 809 1300 812 1200C815 1100 830 1000 831.5 900C833 800 821 700 821 600C821 500 833 400 830 300C827 200 809 100 800 50L791 0L864 0L867 50C870 100 876 200 877.5 300C879 400 876 500 876 600C876 700 879 800 879 900C879 1000 876 1100 873 1200C870 1300 867 1400 867 1500C867 1600 870 1700 868.5 1800C867 1900 861 2000 862.5 2100C864 2200 873 2300 873 2400C873 2500 864 2600 864 2700C864 2800 873 2900 877.5 2950L882 3000Z" fill="#df81e2"></path><path d="M818 3000L810.5 2950C803 2900 788 2800 782 2700C776 2600 779 2500 777.5 2400C776 2300 770 2200 774.5 2100C779 2000 794 1900 797 1800C800 1700 791 1600 782 1500C773 1400 764 1300 768.5 1200C773 1100 791 1000 792.5 900C794 800 779 700 782 600C785 500 806 400 806 300C806 200 785 100 774.5 50L764 0L792 0L801 50C810 100 828 200 831 300C834 400 822 500 822 600C822 700 834 800 832.5 900C831 1000 816 1100 813 1200C810 1300 819 1400 825 1500C831 1600 834 1700 828 1800C822 1900 807 2000 801 2100C795 2200 798 2300 798 2400C798 2500 795 2600 802.5 2700C810 2800 828 2900 837 2950L846 3000Z" fill="#e7a2eb"></path><path d="M584 3000L591.5 2950C599 2900 614 2800 617 2700C620 2600 611 2500 599 2400C587 2300 572 2200 572 2100C572 2000 587 1900 603.5 1800C620 1700 638 1600 642.5 1500C647 1400 638 1300 641 1200C644 1100 659 1000 662 900C665 800 656 700 648.5 600C641 500 635 400 614 300C593 200 557 100 539 50L521 0L765 0L775.5 50C786 100 807 200 807 300C807 400 786 500 783 600C780 700 795 800 793.5 900C792 1000 774 1100 769.5 1200C765 1300 774 1400 783 1500C792 1600 801 1700 798 1800C795 1900 780 2000 775.5 2100C771 2200 777 2300 778.5 2400C780 2500 777 2600 783 2700C789 2800 804 2900 811.5 2950L819 3000Z" fill="#efc1f3"></path><path d="M485 3000L498.5 2950C512 2900 539 2800 551 2700C563 2600 560 2500 546.5 2400C533 2300 509 2200 503 2100C497 2000 509 1900 524 1800C539 1700 557 1600 560 1500C563 1400 551 1300 555.5 1200C560 1100 581 1000 585.5 900C590 800 578 700 572 600C566 500 566 400 548 300C530 200 494 100 476 50L458 0L522 0L540 50C558 100 594 200 615 300C636 400 642 500 649.5 600C657 700 666 800 663 900C660 1000 645 1100 642 1200C639 1300 648 1400 643.5 1500C639 1600 621 1700 604.5 1800C588 1900 573 2000 573 2100C573 2200 588 2300 600 2400C612 2500 621 2600 618 2700C615 2800 600 2900 592.5 2950L585 3000Z" fill="#f7dffa"></path><path d="M395 3000L404 2950C413 2900 431 2800 437 2700C443 2600 437 2500 429.5 2400C422 2300 413 2200 407 2100C401 2000 398 1900 402.5 1800C407 1700 419 1600 425 1500C431 1400 431 1300 434 1200C437 1100 443 1000 450.5 900C458 800 467 700 471.5 600C476 500 476 400 455 300C434 200 392 100 371 50L350 0L459 0L477 50C495 100 531 200 549 300C567 400 567 500 573 600C579 700 591 800 586.5 900C582 1000 561 1100 556.5 1200C552 1300 564 1400 561 1500C558 1600 540 1700 525 1800C510 1900 498 2000 504 2100C510 2200 534 2300 547.5 2400C561 2500 564 2600 552 2700C540 2800 513 2900 499.5 2950L486 3000Z" fill="#faebfc"></path><path d="M332 3000L341 2950C350 2900 368 2800 378.5 2700C389 2600 392 2500 390.5 2400C389 2300 383 2200 377 2100C371 2000 365 1900 363.5 1800C362 1700 365 1600 368 1500C371 1400 374 1300 375.5 1200C377 1100 377 1000 387.5 900C398 800 419 700 423.5 600C428 500 416 400 389 300C362 200 320 100 299 50L278 0L351 0L372 50C393 100 435 200 456 300C477 400 477 500 472.5 600C468 700 459 800 451.5 900C444 1000 438 1100 435 1200C432 1300 432 1400 426 1500C420 1600 408 1700 403.5 1800C399 1900 402 2000 408 2100C414 2200 423 2300 430.5 2400C438 2500 444 2600 438 2700C432 2800 414 2900 405 2950L396 3000Z" fill="#faebfc"></path><path d="M224 3000L221 2950C218 2900 212 2800 204.5 2700C197 2600 188 2500 191 2400C194 2300 209 2200 210.5 2100C212 2000 200 1900 194 1800C188 1700 188 1600 186.5 1500C185 1400 182 1300 182 1200C182 1100 185 1000 195.5 900C206 800 224 700 230 600C236 500 230 400 219.5 300C209 200 194 100 186.5 50L179 0L279 0L300 50C321 100 363 200 390 300C417 400 429 500 424.5 600C420 700 399 800 388.5 900C378 1000 378 1100 376.5 1200C375 1300 372 1400 369 1500C366 1600 363 1700 364.5 1800C366 1900 372 2000 378 2100C384 2200 390 2300 391.5 2400C393 2500 390 2600 379.5 2700C369 2800 351 2900 342 2950L333 3000Z" fill="#f7dffa"></path><path d="M179 3000L176 2950C173 2900 167 2800 158 2700C149 2600 137 2500 140 2400C143 2300 161 2200 167 2100C173 2000 167 1900 162.5 1800C158 1700 155 1600 149 1500C143 1400 134 1300 132.5 1200C131 1100 137 1000 149 900C161 800 179 700 186.5 600C194 500 191 400 180.5 300C170 200 152 100 143 50L134 0L180 0L187.5 50C195 100 210 200 220.5 300C231 400 237 500 231 600C225 700 207 800 196.5 900C186 1000 183 1100 183 1200C183 1300 186 1400 187.5 1500C189 1600 189 1700 195 1800C201 1900 213 2000 211.5 2100C210 2200 195 2300 192 2400C189 2500 198 2600 205.5 2700C213 2800 219 2900 222 2950L225 3000Z" fill="#efc1f3"></path><path d="M143 3000L135.5 2950C128 2900 113 2800 105.5 2700C98 2600 98 2500 102.5 2400C107 2300 116 2200 119 2100C122 2000 119 1900 119 1800C119 1700 122 1600 117.5 1500C113 1400 101 1300 95 1200C89 1100 89 1000 96.5 900C104 800 119 700 129.5 600C140 500 146 400 137 300C128 200 104 100 92 50L80 0L135 0L144 50C153 100 171 200 181.5 300C192 400 195 500 187.5 600C180 700 162 800 150 900C138 1000 132 1100 133.5 1200C135 1300 144 1400 150 1500C156 1600 159 1700 163.5 1800C168 1900 174 2000 168 2100C162 2200 144 2300 141 2400C138 2500 150 2600 159 2700C168 2800 174 2900 177 2950L180 3000Z" fill="#e7a2eb"></path><path d="M89 3000L84.5 2950C80 2900 71 2800 66.5 2700C62 2600 62 2500 63.5 2400C65 2300 68 2200 72.5 2100C77 2000 83 1900 86 1800C89 1700 89 1600 81.5 1500C74 1400 59 1300 54.5 1200C50 1100 56 1000 63.5 900C71 800 80 700 84.5 600C89 500 89 400 83 300C77 200 65 100 59 50L53 0L81 0L93 50C105 100 129 200 138 300C147 400 141 500 130.5 600C120 700 105 800 97.5 900C90 1000 90 1100 96 1200C102 1300 114 1400 118.5 1500C123 1600 120 1700 120 1800C120 1900 123 2000 120 2100C117 2200 108 2300 103.5 2400C99 2500 99 2600 106.5 2700C114 2800 129 2900 136.5 2950L144 3000Z" fill="#df81e2"></path><path d="M0 3000L0 2950C0 2900 0 2800 0 2700C0 2600 0 2500 0 2400C0 2300 0 2200 0 2100C0 2000 0 1900 0 1800C0 1700 0 1600 0 1500C0 1400 0 1300 0 1200C0 1100 0 1000 0 900C0 800 0 700 0 600C0 500 0 400 0 300C0 200 0 100 0 50L0 0L54 0L60 50C66 100 78 200 84 300C90 400 90 500 85.5 600C81 700 72 800 64.5 900C57 1000 51 1100 55.5 1200C60 1300 75 1400 82.5 1500C90 1600 90 1700 87 1800C84 1900 78 2000 73.5 2100C69 2200 66 2300 64.5 2400C63 2500 63 2600 67.5 2700C72 2800 81 2900 85.5 2950L90 3000Z" fill="#d75dd8"></path></svg>