<svg width="4000" height="4000" viewBox="0 0 4000 4000" fill="none" xmlns="http://www.w3.org/2000/svg">
<path fill-rule="evenodd" clip-rule="evenodd" d="M4000 0H0V4000H4000V0ZM2276.7 1729.44C2255.76 1698.88 2234.84 1668.35 2202.79 1650.32C2168.45 1630.99 2128.58 1629.03 2088.96 1627.08C2076.42 1626.46 2063.91 1625.85 2051.6 1624.68C2042.65 1623.83 2033.66 1622.83 2024.67 1621.82C1984.71 1617.34 1944.63 1612.85 1906.4 1622.26C1876.69 1629.58 1851.89 1646.51 1826.94 1663.56C1813.01 1673.07 1799.03 1682.62 1784.12 1690.54C1768.38 1698.91 1751.56 1705.54 1734.8 1712.15C1704.48 1724.12 1674.36 1736 1651.13 1757.93C1613.69 1793.28 1580.65 1838.15 1573.6 1889.29C1568.57 1925.73 1582.49 1961.52 1596.41 1997.3C1602.06 2011.82 1607.7 2026.35 1612.09 2040.91C1625.84 2086.62 1639.79 2131.3 1659.6 2175.08C1664.36 2185.59 1668.76 2196.41 1673.17 2207.24C1688.17 2244.07 1703.27 2281.16 1732.88 2307.84C1771.26 2342.42 1824.23 2356.22 1874.31 2368.53C1912.08 2377.81 1950.34 2377.94 1988.82 2378.06C1999.09 2378.1 2009.38 2378.13 2019.68 2378.34C2030.67 2378.56 2041.66 2379 2052.63 2379.44C2091.46 2380.98 2130.07 2382.52 2167.68 2374.45C2219.17 2363.4 2272.56 2349.54 2311.44 2315.71C2343.48 2287.83 2360.22 2247.96 2376.77 2208.53C2380.37 2199.94 2383.97 2191.37 2387.72 2182.95C2390.89 2175.8 2394.18 2168.67 2397.47 2161.52C2415.78 2121.78 2434.27 2081.64 2435.09 2037.71C2436.05 1986.08 2416.29 1935.26 2393.23 1887.75C2376.6 1853.5 2351.95 1824.34 2327.17 1795.01C2319.15 1785.52 2311.11 1776.01 2303.33 1766.3C2293.93 1754.59 2285.31 1742.01 2276.7 1729.44Z" fill="#2F9AB5"/>
</svg>
