<svg width="4000" height="4000" viewBox="0 0 4000 4000" fill="none" xmlns="http://www.w3.org/2000/svg">
<path fill-rule="evenodd" clip-rule="evenodd" d="M4000 0H0V4000H4000V0ZM2232.83 1410.13C2158.83 1381.92 2078.93 1374.79 1999.77 1376.16C1921.19 1377.52 1843.55 1390.95 1769.81 1418.15C1695.56 1445.54 1618.34 1476.65 1566.07 1536.13C1536.52 1569.76 1524.32 1613.07 1512.02 1656.71C1502.78 1689.51 1493.49 1722.49 1476.74 1751.69C1459.89 1781.05 1434.75 1805.79 1409.83 1830.33C1373.42 1866.15 1337.48 1901.52 1328.52 1950.15C1317.57 2009.56 1344.23 2066.85 1370.63 2123.56C1380.04 2143.8 1389.43 2163.96 1397.05 2184.11C1424.58 2256.87 1453.29 2328.29 1496.16 2393.18C1498.87 2397.28 1501.58 2401.4 1504.3 2405.52C1545.87 2468.71 1588.81 2533.96 1653.51 2572.3C1722.29 2613.06 1805.68 2622.28 1885.59 2623.95C1927.35 2624.82 1967.38 2613.71 2007.56 2602.55C2039.98 2593.55 2072.48 2584.53 2106.07 2581.75C2139.15 2579.01 2173.07 2584.28 2206.76 2589.5C2257.65 2597.41 2307.99 2605.22 2353.99 2585.19C2411.82 2560 2448.1 2504.98 2483.83 2450.79C2494.56 2434.52 2505.23 2418.33 2516.42 2403.05C2527.16 2388.39 2538.74 2373.92 2550.37 2359.4C2590.86 2308.83 2631.95 2257.52 2639.89 2194.77C2645.96 2146.71 2626.14 2101.84 2606.1 2056.49C2592.08 2024.74 2577.95 1992.76 2572.53 1959.29C2567.18 1926.25 2569.71 1892.46 2572.23 1858.82C2575.49 1815.2 2578.73 1771.85 2564.75 1730.77C2539.44 1656.41 2486.31 1594.65 2429.84 1540.1C2372.76 1484.96 2306.96 1438.38 2232.83 1410.13Z" fill="#FFCCF8"/>
</svg>
