<svg width="4000" height="4000" viewBox="0 0 4000 4000" fill="none" xmlns="http://www.w3.org/2000/svg">
<path fill-rule="evenodd" clip-rule="evenodd" d="M4000 0H0V4000H4000V0ZM2317.25 1648.73C2277.72 1608.99 2226.12 1580.43 2171.54 1567.7C2134.45 1559.05 2096.71 1564.72 2058.79 1570.41C2042.07 1572.92 2025.32 1575.44 2008.57 1576.73C1992.46 1577.98 1972.59 1578.14 1951.37 1578.31C1903.32 1578.7 1848.33 1579.15 1814.21 1592.37C1778.4 1606.25 1749.68 1631.88 1720.87 1657.59C1709.92 1667.37 1698.96 1677.16 1687.58 1686.32C1655.39 1712.23 1640.65 1734.62 1622.09 1762.79C1615.39 1772.97 1608.19 1783.9 1599.49 1796.02C1564.85 1844.32 1528.79 1899.32 1530.36 1958.74C1531.37 1996.55 1552.62 2028.61 1574.07 2060.98C1586.69 2080.02 1599.38 2099.16 1608.06 2119.65C1616.83 2140.34 1623.06 2161.9 1629.26 2183.39C1638.25 2214.52 1647.2 2245.52 1663.78 2273.53C1693.36 2323.5 1728.89 2371.21 1776.58 2404.35C1825.19 2438.13 1882.85 2457.4 1941.35 2466.41C1999.69 2475.39 2059.92 2472.98 2116.65 2456.71C2166.18 2442.49 2208.83 2413.02 2251.3 2383.67C2256.45 2380.12 2261.6 2376.56 2266.76 2373.03C2276.21 2366.57 2285.94 2360.3 2295.7 2354.01C2334.54 2329.01 2373.77 2303.74 2397.31 2264.72C2420.64 2226.06 2424.56 2180 2428.45 2134.39C2429.45 2122.71 2430.44 2111.06 2431.76 2099.57C2437.71 2047.61 2440.11 1995.98 2434.04 1944.04C2427.96 1892.11 2415.15 1841.88 2395.92 1793.26C2394.45 1789.54 2392.98 1785.81 2391.51 1782.07C2372.68 1734.1 2353.44 1685.12 2317.25 1648.73Z" fill="#8493DE"/>
</svg>
